# xmcd
#
# Track frame offsets: 
#        150
#        17102
#        31319
#        43950
#        55898
#        71550
#        87450
#        104550
#        119025
#        135125
#        150225
#        163325
#        174900
#        187950
#
# Disc length: 2740 seconds
#
# Revision: 0
# Processed by: cddbd v1.5.2PL0 Copyright (c) Steve Scherf et al.
# Submitted via: ExactAudioCopy v0.99pb5
#
DISCID=ba0ab20e
DTITLE=Salvatore Adamo - Chante Ses Plus Grands Succes
DYEAR=1978
DGENRE=Chanson
TTITLE0=Inch'Allah
TTITLE1=Comme Toujours
TTITLE2=J'ai Rate Le Coche
TTITLE3=J'aime
TTITLE4=Une Larme Aux Nuages
TTITLE5=La Nuit
TTITLE6=Les Belles Erreues
TTITLE7=Mes Mains Sur Tes Hanches
TTITLE8=Elle
TTITLE9=En Banouliere
TTITLE10=Ton Nom
TTITLE11=Le Barbu Sans Barbre
TTITLE12=Tombe La Neige
TTITLE13=Je Danse
EXTD=
EXTT0=
EXTT1=
EXTT2=
EXTT3=
EXTT4=
EXTT5=
EXTT6=
EXTT7=
EXTT8=
EXTT9=
EXTT10=
EXTT11=
EXTT12=
EXTT13=
PLAYORDER=
